<svg xmlns="http://www.w3.org/2000/svg" viewBox="0 0 760 940" font-family="'General Sans',system-ui,sans-serif">
  <rect width="760" height="940" rx="18" fill="#ffffff"/>
  <rect x="0" y="0" width="760" height="58" rx="18" fill="#f5f7fc"/><rect x="0" y="44" width="760" height="14" fill="#f5f7fc"/>
  <rect x="26" y="20" width="18" height="18" rx="6" fill="#2f4bd6"/>
  <text x="54" y="34" fill="#0b0b28" font-size="15" font-weight="600">Run console</text>
  <rect x="632" y="16" width="104" height="26" rx="13" fill="#e6ffef"/><circle cx="652" cy="29" r="4" fill="#12b76a"/><text x="666" y="33" fill="#0a7a48" font-size="12" font-weight="600" font-family="'JetBrains Mono',monospace">running</text>
  <line x1="0" y1="58" x2="760" y2="58" stroke="#eceef4"/>
  <text x="26" y="98" fill="#8a90a6" font-size="12" font-family="'JetBrains Mono',monospace" letter-spacing="1.5">TRIGGERED FROM CHAT</text>
  <!-- request bubble -->
  <rect x="300" y="112" width="434" height="66" rx="16" fill="#e6ecff"/>
  <text x="322" y="140" fill="#1b2a6b" font-size="13.5">Run the digest now and schedule it</text>
  <text x="322" y="160" fill="#1b2a6b" font-size="13.5">daily at 12:30am.</text>
  <!-- run stream -->
  <g font-family="'JetBrains Mono',monospace" font-size="13">
    <rect x="26" y="198" width="708" height="42" rx="11" fill="#f5f7fc"/><circle cx="48" cy="219" r="4" fill="#2f4bd6"/><text x="66" y="224" fill="#0b0b28">plan.decompose</text><text x="640" y="224" fill="#6b7089">240ms</text>
    <rect x="26" y="248" width="708" height="42" rx="11" fill="#f5f7fc"/><circle cx="48" cy="269" r="4" fill="#2f4bd6"/><text x="66" y="274" fill="#0b0b28">tool.http_get  x4</text><text x="656" y="274" fill="#6b7089">1.3s</text>
    <rect x="26" y="298" width="708" height="42" rx="11" fill="#f5f7fc"/><circle cx="48" cy="319" r="4" fill="#2f4bd6"/><text x="66" y="324" fill="#0b0b28">model.summarize</text><text x="656" y="324" fill="#6b7089">1.9s</text>
    <rect x="26" y="348" width="708" height="42" rx="11" fill="#f5f7fc"/><circle cx="48" cy="369" r="4" fill="#2f4bd6"/><text x="66" y="374" fill="#0b0b28">policy.check  egress</text><text x="640" y="374" fill="#6b7089">18ms</text>
    <rect x="26" y="398" width="708" height="42" rx="11" fill="#eef8f1"/><path d="M40 415l5 5 9-9" stroke="#12b76a" stroke-width="2" fill="none" stroke-linecap="round" stroke-linejoin="round"/><text x="66" y="424" fill="#0b0b28">tool.publish  slack</text><text x="628" y="424" fill="#0a7a48">delivered</text>
  </g>
  <!-- report card -->
  <defs><linearGradient id="rep" x1="0" y1="0" x2="1" y2="1"><stop offset="0" stop-color="#3d5afe"/><stop offset="1" stop-color="#1b2a8a"/></linearGradient></defs>
  <rect x="26" y="462" width="708" height="168" rx="16" fill="url(#rep)"/>
  <text x="50" y="502" fill="#fff" font-size="18" font-weight="700">Weekly performance</text>
  <text x="50" y="524" fill="#c7d2ff" font-size="12.5">Northwind . week of Jun 8</text>
  <text x="710" y="500" fill="#fff" font-size="30" font-weight="700" text-anchor="end">+23%</text>
  <text x="710" y="524" fill="#c7d2ff" font-size="11" text-anchor="end">paid signups w/w</text>
  <g fill="#ffffff" opacity=".26"><rect x="50" y="560" width="26" height="40" rx="4"/><rect x="86" y="548" width="26" height="52" rx="4"/><rect x="122" y="572" width="26" height="28" rx="4"/><rect x="158" y="540" width="26" height="60" rx="4"/><rect x="194" y="556" width="26" height="44" rx="4"/><rect x="230" y="530" width="26" height="70" rx="4"/><rect x="266" y="566" width="26" height="34" rx="4"/></g>
  <rect x="470" y="590" width="240" height="28" rx="8" fill="rgba(255,255,255,.16)"/><text x="486" y="609" fill="#fff" font-size="12" font-family="'JetBrains Mono',monospace">Weekly-Performance.pdf . 6p</text>
  <!-- schedule confirm -->
  <rect x="26" y="654" width="708" height="86" rx="14" fill="#ffffff" stroke="#e2e6ef"/>
  <rect x="46" y="674" width="40" height="40" rx="10" fill="#e6ecff"/><circle cx="66" cy="694" r="11" fill="none" stroke="#2f4bd6" stroke-width="1.8"/><path d="M66 686v9l5 3" stroke="#2f4bd6" stroke-width="1.8" fill="none" stroke-linecap="round"/>
  <text x="102" y="690" fill="#0b0b28" font-size="15" font-weight="600">Schedule set</text>
  <text x="102" y="714" fill="#6b7089" font-size="13" font-family="'JetBrains Mono',monospace">cron 0 30 0 * * *  .  next run in 14h  .  no redeploy</text>
  <!-- run history -->
  <text x="26" y="784" fill="#8a90a6" font-size="12" font-family="'JetBrains Mono',monospace" letter-spacing="1.5">RECENT RUNS</text>
  <g font-size="13" font-family="'JetBrains Mono',monospace">
    <rect x="26" y="800" width="708" height="40" rx="10" fill="#f5f7fc"/><text x="48" y="825" fill="#0b0b28">mon 12:30</text><text x="360" y="825" fill="#6b7089">5.4s . 5 spans</text><rect x="650" y="810" width="64" height="20" rx="10" fill="#e6ffef"/><text x="666" y="824" fill="#0a7a48" font-size="11">ok</text>
    <rect x="26" y="848" width="708" height="40" rx="10" fill="#f5f7fc"/><text x="48" y="873" fill="#0b0b28">sun 12:30</text><text x="360" y="873" fill="#6b7089">5.1s . 5 spans</text><rect x="650" y="858" width="64" height="20" rx="10" fill="#e6ffef"/><text x="666" y="872" fill="#0a7a48" font-size="11">ok</text>
    <rect x="26" y="896" width="708" height="40" rx="10" fill="#f5f7fc"/><text x="48" y="921" fill="#0b0b28">sat 12:30</text><text x="360" y="921" fill="#6b7089">4.9s . 5 spans</text><rect x="650" y="906" width="64" height="20" rx="10" fill="#e6ffef"/><text x="666" y="920" fill="#0a7a48" font-size="11">ok</text>
  </g>
</svg>
