<svg xmlns="http://www.w3.org/2000/svg" viewBox="0 0 720 440" font-family="'JetBrains Mono','SF Mono',ui-monospace,monospace">
  <rect width="720" height="440" fill="#0f0f13"/>
  <rect x="0" y="0" width="720" height="46" fill="#141419"/>
  <line x1="0" y1="46" x2="720" y2="46" stroke="#26262e"/>
  <circle cx="26" cy="23" r="6" fill="#f0605c"/>
  <text x="42" y="28" fill="#e8e8ea" font-size="14" font-weight="500">Network egress</text>
  <rect x="540" y="12" width="162" height="22" rx="11" fill="#111116" stroke="#2c2c36"/>
  <text x="556" y="27" fill="#8b8b95" font-size="11">enforced at the kernel</text>
  <!-- headers -->
  <text x="24" y="72" fill="#8b8b95" font-size="10.5">DESTINATION</text>
  <text x="330" y="72" fill="#8b8b95" font-size="10.5">IP</text>
  <text x="470" y="72" fill="#8b8b95" font-size="10.5">PORT</text>
  <text x="560" y="72" fill="#8b8b95" font-size="10.5">DECISION</text>
  <line x1="24" y1="82" x2="696" y2="82" stroke="#26262e"/>
  <g font-size="12">
    <rect x="24" y="92" width="672" height="38" rx="8" fill="#16161c"/>
    <text x="36" y="115" fill="#e8e8ea">api.openai.com</text>
    <text x="330" y="115" fill="#c7c7cf">104.18.7.4</text>
    <text x="470" y="115" fill="#c7c7cf">443</text>
    <rect x="560" y="102" width="74" height="20" rx="10" fill="#16341f" stroke="#245c39"/><text x="574" y="116" fill="#3ec27f">allow</text>

    <rect x="24" y="136" width="672" height="38" rx="8" fill="#16161c"/>
    <text x="36" y="159" fill="#e8e8ea">notion.so</text>
    <text x="330" y="159" fill="#c7c7cf">2606:4700::1</text>
    <text x="470" y="159" fill="#c7c7cf">443</text>
    <rect x="560" y="146" width="74" height="20" rx="10" fill="#16341f" stroke="#245c39"/><text x="574" y="160" fill="#3ec27f">allow</text>

    <rect x="24" y="180" width="672" height="38" rx="8" fill="#1c1416"/>
    <text x="36" y="203" fill="#f3c9c6">198.51.100.9</text>
    <text x="330" y="203" fill="#c7898a">198.51.100.9</text>
    <text x="470" y="203" fill="#c7898a">8080</text>
    <rect x="560" y="190" width="80" height="20" rx="10" fill="#3a1a1a" stroke="#6e2f2c"/><text x="574" y="204" fill="#f0605c">blocked</text>

    <rect x="24" y="224" width="672" height="38" rx="8" fill="#16161c"/>
    <text x="36" y="247" fill="#e8e8ea">slack.com</text>
    <text x="330" y="247" fill="#c7c7cf">44.196.3.12</text>
    <text x="470" y="247" fill="#c7c7cf">443</text>
    <rect x="560" y="234" width="74" height="20" rx="10" fill="#16341f" stroke="#245c39"/><text x="574" y="248" fill="#3ec27f">allow</text>

    <rect x="24" y="268" width="672" height="38" rx="8" fill="#1c1416"/>
    <text x="36" y="291" fill="#f3c9c6">169.254.169.254</text>
    <text x="330" y="291" fill="#c7898a">metadata</text>
    <text x="470" y="291" fill="#c7898a">80</text>
    <rect x="560" y="278" width="80" height="20" rx="10" fill="#3a1a1a" stroke="#6e2f2c"/><text x="574" y="292" fill="#f0605c">blocked</text>
  </g>
  <line x1="24" y1="322" x2="696" y2="322" stroke="#26262e"/>
  <text x="24" y="348" fill="#8b8b95" font-size="11">default deny . every connection logged by domain, port and protocol</text>
  <g font-size="11">
    <rect x="24" y="362" width="118" height="26" rx="7" fill="#131318" stroke="#245c39"/><text x="40" y="379" fill="#3ec27f">3 allowed</text>
    <rect x="150" y="362" width="118" height="26" rx="7" fill="#131318" stroke="#6e2f2c"/><text x="166" y="379" fill="#f0605c">2 blocked</text>
    <rect x="276" y="362" width="150" height="26" rx="7" fill="#131318" stroke="#26262e"/><text x="292" y="379" fill="#8b8b95">nothing leaves unlogged</text>
  </g>
</svg>
