<svg xmlns="http://www.w3.org/2000/svg" viewBox="0 0 720 440" font-family="'JetBrains Mono','SF Mono',ui-monospace,monospace">
  <rect width="720" height="440" fill="#0f0f13"/>
  <rect x="0" y="0" width="720" height="46" fill="#141419"/>
  <line x1="0" y1="46" x2="720" y2="46" stroke="#26262e"/>
  <circle cx="26" cy="23" r="6" fill="#f5bd4f"/>
  <text x="42" y="28" fill="#e8e8ea" font-size="14" font-weight="500">Span detail</text>
  <text x="560" y="28" fill="#5c6a7a" font-size="11">span 4fa1.18b0</text>
  <!-- header block -->
  <text x="24" y="80" fill="#e8e8ea" font-size="14">model.summarize</text>
  <rect x="196" y="66" width="94" height="20" rx="10" fill="#16341f" stroke="#245c39"/>
  <text x="210" y="80" fill="#3ec27f" font-size="10.5">approved</text>
  <text x="24" y="102" fill="#8b8b95" font-size="11">claude . 1.9s . reviewed by you</text>
  <!-- token breakdown bar -->
  <text x="24" y="140" fill="#8b8b95" font-size="10.5">TOKEN BREAKDOWN</text>
  <rect x="24" y="150" width="672" height="24" rx="6" fill="#16161c"/>
  <rect x="24" y="150" width="250" height="24" rx="6" fill="#2f6ad0"/>
  <rect x="274" y="150" width="150" height="24" fill="#245c39"/>
  <rect x="424" y="150" width="272" height="24" rx="6" fill="#7a5a1c"/>
  <text x="34" y="167" fill="#dfe8f5" font-size="10.5">prompt 1,410</text>
  <text x="284" y="167" fill="#cfeeda" font-size="10.5">context 840</text>
  <text x="434" y="167" fill="#f2e3c2" font-size="10.5">completion 1,630</text>
  <!-- attributes -->
  <text x="24" y="210" fill="#8b8b95" font-size="10.5">ATTRIBUTES</text>
  <g font-size="12">
    <rect x="24" y="220" width="672" height="30" rx="7" fill="#131318" stroke="#26262e"/>
    <text x="38" y="239" fill="#c7c7cf">resource.service</text><text x="360" y="239" fill="#e8e8ea">agentz-runtime</text>
    <rect x="24" y="256" width="672" height="30" rx="7" fill="#131318" stroke="#26262e"/>
    <text x="38" y="275" fill="#c7c7cf">gen_ai.request.model</text><text x="360" y="275" fill="#e8e8ea">claude</text>
    <rect x="24" y="292" width="672" height="30" rx="7" fill="#131318" stroke="#26262e"/>
    <text x="38" y="311" fill="#c7c7cf">policy.decision</text><text x="360" y="311" fill="#3ec27f">allow . scoped</text>
    <rect x="24" y="328" width="672" height="30" rx="7" fill="#131318" stroke="#26262e"/>
    <text x="38" y="347" fill="#c7c7cf">signature</text><text x="360" y="347" fill="#3ec27f">ed25519 3f9a...c1 . valid</text>
  </g>
  <!-- footer actions -->
  <rect x="24" y="376" width="120" height="34" rx="9" fill="#3ec27f"/>
  <text x="52" y="398" fill="#0f0f13" font-size="12" font-weight="600">Approve</text>
  <rect x="156" y="376" width="120" height="34" rx="9" fill="#1b1b22" stroke="#2c2c36"/>
  <text x="184" y="398" fill="#c7c7cf" font-size="12">Reject</text>
  <text x="560" y="398" fill="#5c6a7a" font-size="11">read . review . approve</text>
</svg>
